<?xml version="1.0" encoding="UTF-8" standalone="no"?>
<svg width="40px" height="40px" viewBox="0 0 40 40" version="1.1" xmlns="http://www.w3.org/2000/svg" xmlns:xlink="http://www.w3.org/1999/xlink">
    <!-- Generator: Sketch 3.7.1 (28215) - http://www.bohemiancoding.com/sketch -->
    <title>Page 1</title>
    <desc>Created with Sketch.</desc>
    <defs>
        <polygon id="path-1" points="19.9214404 39.7938144 0 39.7938144 0 0.15628866 19.9214404 0.15628866 39.8428808 0.15628866 39.8428808 39.7938144"></polygon>
    </defs>
    <g id="Welcome" stroke="none" stroke-width="1" fill="none" fill-rule="evenodd">
        <g id="Desktop-HD" transform="translate(-1378.000000, -17.000000)">
            <g id="Page-1" transform="translate(1378.000000, 17.000000)">
                <g id="Group-3" transform="translate(0.000000, 0.049897)">
                    <mask id="mask-2" fill="white">
                        <use xlink:href="#path-1"></use>
                    </mask>
                    <g id="Clip-2"></g>
                    <path d="M39.8428808,19.9750515 C39.8428808,30.9206186 30.9237098,39.7938144 19.9214301,39.7938144 C8.91915026,39.7938144 -2.07253886e-05,30.9206186 -2.07253886e-05,19.9750515 C-2.07253886e-05,9.02948454 8.91915026,0.15628866 19.9214301,0.15628866 C30.9237098,0.15628866 39.8428808,9.02948454 39.8428808,19.9750515" id="Fill-1" fill="#0080CA" mask="url(#mask-2)"></path>
                </g>
                <path d="M13.3314611,12.6637526 C16.2589223,12.8979794 17.508456,13.592 19.1528083,15.4757113 C21.3735337,18.0198351 22.0129119,21.0996289 23.7878342,23.0328247 C25.2311503,24.6047835 26.3198549,25.6522062 28.4398549,26.154268 C25.8487668,26.7233402 23.5660725,25.5992165 22.4502176,24.9827216 C19.0636891,23.1109691 18.0960207,18.7643711 17.1337409,16.9821031 C16.4384041,15.694268 15.3841036,13.0654021 13.3314611,12.6637526" id="Fill-4" fill="#FFFFFF"></path>
                <path d="M33.8236891,17.7185361 C33.4473161,16.2476082 32.5434819,15.0189485 31.2141554,13.934 C29.2473161,12.3290515 26.8688705,12.3593608 25.1673161,12.7391546 C23.2077306,13.1764742 21.8732228,14.3370928 20.8489741,15.7418351 L20.886487,15.7896701 C21.6245181,16.8449278 22.045658,17.6997732 22.3298031,18.3003918 C22.8605803,17.3601856 23.470943,16.5280206 24.3851399,15.8271959 C27.4638964,13.4671959 31.2999585,15.3752371 31.9055544,17.5344124 C32.6711503,20.2638969 32.3851399,23.1498763 29.684829,25.819567 C33.217886,24.5643093 34.6564352,20.974 33.8236891,17.7185361 M18.5586114,19.8818351 L20.1200622,22.4375052 C20.4935337,21.8748247 20.8566425,21.2418351 21.2052435,20.5304948 C21.3428601,20.2496701 21.4746736,19.9760619 21.6050363,19.7080206 C21.0236891,18.9577113 20.2433782,17.8544124 19.9041036,17.2323505 C19.406487,18.1191546 18.9791295,19.0342062 18.5586114,19.8818351 M16.829285,22.6208041 C13.9521865,25.5331753 10.1179896,24.1793608 8.85622798,22.2711134 C6.83840415,19.2199794 8.08234197,14.9399794 11.4471088,12.9315258 C8.58700518,13.5676082 6.61001036,16.1201856 6.33249741,18.9570928 C6.04192746,21.9259588 7.86120207,24.6245155 9.78990674,25.6438969 C11.6025492,26.6018351 15.7698031,27.7964742 19.3009948,23.5436907 C18.7984041,22.8880206 18.2346736,21.9929691 17.8384041,21.2403918 C17.5250363,21.7764742 17.1965389,22.2488454 16.829285,22.6208041" id="Fill-6" fill="#FFFFFF"></path>
            </g>
        </g>
    </g>
</svg>