<?xml version="1.0" encoding="UTF-8" standalone="no"?>
<svg width="17px" height="20px" viewBox="0 0 17 20" version="1.1" xmlns="http://www.w3.org/2000/svg" xmlns:xlink="http://www.w3.org/1999/xlink">
    <!-- Generator: Sketch 3.7 (28169) - http://www.bohemiancoding.com/sketch -->
    <title>Group</title>
    <desc>Created with Sketch.</desc>
    <defs></defs>
    <g id="Welcome" stroke="none" stroke-width="1" fill="none" fill-rule="evenodd">
        <g id="登录" transform="translate(-595.000000, -578.000000)" stroke="#0F81C7" stroke-width="2">
            <g id="Group" transform="translate(596.000000, 579.000000)">
                <path d="M15,15.48 C15,16.87188 13.815,18 12.3529412,18 L2.64705882,18 C1.185,18 0,16.87188 0,15.48 L0,10.02 C0,8.62812 1.185,7.5 2.64705882,7.5 L12.3529412,7.5 C13.815,7.5 15,8.62812 15,10.02 L15,15.48 L15,15.48 Z" id="Shape"></path>
                <path d="M2.64705882,7.5 L2.64705882,4.33333333 C2.64705882,1.82043333 4.83132353,0 7.38970588,0 L7.33455882,0 C9.89294118,0 11.9117647,1.82043333 11.9117647,4.33333333 L11.9117647,5.2" id="Shape"></path>
                <path d="M9.70588235,12.75 C9.70588235,13.99245 8.71808824,15 7.5,15 C6.28191176,15 5.29411765,13.99245 5.29411765,12.75 C5.29411765,11.50755 6.28191176,10.5 7.5,10.5 C8.71808824,10.5 9.70588235,11.50755 9.70588235,12.75 L9.70588235,12.75 Z" id="Shape"></path>
            </g>
        </g>
    </g>
</svg>