<?xml version="1.0" encoding="UTF-8" standalone="no"?>
<svg width="18px" height="18px" viewBox="0 0 18 18" version="1.1" xmlns="http://www.w3.org/2000/svg" xmlns:xlink="http://www.w3.org/1999/xlink">
    <!-- Generator: Sketch 3.7 (28169) - http://www.bohemiancoding.com/sketch -->
    <title>Group</title>
    <desc>Created with Sketch.</desc>
    <defs></defs>
    <g id="Welcome" stroke="none" stroke-width="1" fill="none" fill-rule="evenodd">
        <g id="登录" transform="translate(-595.000000, -519.000000)" stroke="#0F81C7" stroke-width="2">
            <g id="Group" transform="translate(596.000000, 520.000000)">
                <path d="M14.4562051,15.5897436 C15.2521026,15.5897436 15.7883077,14.7971282 15.52,14.048 C14.6962051,11.7464615 12.8418462,9.93846154 10.5128205,9.17415385" id="Shape"></path>
                <path d="M5.07692308,9.1745641 C2.74789744,9.93887179 0.893538462,11.7468718 0.0697435897,14.0484103 C-0.198564103,14.7975385 0.337641026,15.5901538 1.13353846,15.5901538" id="Shape"></path>
                <path d="M7.79487179,9.84615385 C5.07610256,9.84615385 2.87179487,7.64184615 2.87179487,4.92307692 C2.87179487,2.20430769 5.07610256,0 7.79487179,0 C10.513641,0 12.7179487,2.20430769 12.7179487,4.92307692 C12.7179487,7.64184615 10.513641,9.84615385 7.79487179,9.84615385 Z" id="Shape"></path>
            </g>
        </g>
    </g>
</svg>